<svg width="32" height="32" viewBox="0 0 32 32" fill="none" xmlns="http://www.w3.org/2000/svg">
<circle cx="16" cy="16" r="16" fill="#24C9AE"/>
<path d="M11.0607 15.9393C10.4749 15.3536 9.52513 15.3536 8.93934 15.9393C8.35355 16.5251 8.35355 17.4749 8.93934 18.0607L11.0607 15.9393ZM14 21L12.9393 22.0607C13.5251 22.6464 14.4749 22.6464 15.0607 22.0607L14 21ZM24.0607 13.0607C24.6464 12.4749 24.6464 11.5251 24.0607 10.9393C23.4749 10.3536 22.5251 10.3536 21.9393 10.9393L24.0607 13.0607ZM8.93934 18.0607L12.9393 22.0607L15.0607 19.9393L11.0607 15.9393L8.93934 18.0607ZM15.0607 22.0607L24.0607 13.0607L21.9393 10.9393L12.9393 19.9393L15.0607 22.0607Z" fill="white"/>
</svg>
