<svg xmlns="http://www.w3.org/2000/svg" xmlns:xlink="http://www.w3.org/1999/xlink" version="1.1" x="0px" y="0px" viewBox="0 0 511.886 511.886" style="enable-background:new 0 0 511.886 511.886;" xml:space="preserve">
<g>
<path style="fill:#CC4B4C;" d="M231.312,53.702L4.134,428.516c-5.361,8.871-5.519,19.944-0.413,28.964   c5.105,9.02,14.68,14.585,25.045,14.556H483.12c10.365,0.029,19.939-5.535,25.045-14.556c5.105-9.02,4.947-20.093-0.413-28.964   L280.574,53.702c-5.229-8.601-14.566-13.852-24.631-13.852C245.877,39.85,236.54,45.101,231.312,53.702z"/>
<path style="fill:#E6E7E8;" d="M48.571,423.323L248.394,93.642c1.6-2.64,4.462-4.252,7.549-4.252c3.087,0,5.949,1.612,7.549,4.252   l199.823,329.681c1.652,2.726,1.707,6.131,0.142,8.908c-1.564,2.777-4.504,4.495-7.691,4.496H56.12   c-3.187,0-6.127-1.718-7.691-4.496C46.865,429.453,46.919,426.048,48.571,423.323z"/>
<g>
<path style="fill:#CC4B4C;" d="M255.943,180.726L255.943,180.726c14.626,0,26.483,11.857,26.483,26.483v79.448    c0,14.626-11.857,26.483-26.483,26.483l0,0c-14.626,0-26.483-11.857-26.483-26.483v-79.448    C229.46,192.582,241.317,180.726,255.943,180.726z"/>
<circle style="fill:#CC4B4C;" cx="255.943" cy="374.933" r="26.483"/>
</g>
</g>
</svg>