<svg width="184" height="184" viewBox="0 0 184 184" fill="none" xmlns="http://www.w3.org/2000/svg">
<path fill-rule="evenodd" clip-rule="evenodd" d="M130.333 144.667C130.333 145.219 130.781 145.667 131.333 145.667H138C159.171 145.667 176.333 128.504 176.333 107.333C176.333 88.2734 162.423 72.4625 144.201 69.4989C143.813 69.4358 143.492 69.1566 143.379 68.7808C136.659 46.5151 115.994 30.6666 92 30.6666C74.1632 30.6666 57.8499 39.447 47.9403 53.6831C47.7776 53.9169 47.5227 54.0726 47.2406 54.112C24.8197 57.2442 7.66663 76.5036 7.66663 99.6666C7.66663 124.736 27.7215 145.122 52.6633 145.656C53.2155 145.668 53.6666 145.219 53.6666 144.667V131.333C53.6666 130.781 53.2166 130.335 52.6646 130.317C36.1917 129.788 23 116.268 23 99.6666C23 83.1867 36.0282 69.6681 52.4373 69.024L56.1107 68.8798C56.4537 68.8664 56.7658 68.6779 56.9374 68.3807L58.7758 65.1972C65.5829 53.4092 78.1417 46 92 46C110.792 46 126.733 59.618 129.804 77.9405L130.756 83.6206C130.838 84.11 131.266 84.4652 131.762 84.4551L137.521 84.3382C137.76 84.3341 137.76 84.3341 138 84.3333C150.702 84.3333 161 94.6307 161 107.333C161 120.036 150.702 130.333 138 130.333H131.333C130.781 130.333 130.333 130.781 130.333 131.333V144.667ZM99.6666 160V110.509L116.538 127.381C116.929 127.771 117.562 127.771 117.953 127.381L127.381 117.953C127.771 117.562 127.771 116.929 127.381 116.538L92.7071 81.8648C92.3165 81.4742 91.6834 81.4742 91.2928 81.8648L56.6192 116.538C56.2287 116.929 56.2287 117.562 56.6192 117.953L66.0473 127.381C66.4379 127.771 67.071 127.771 67.4616 127.381L84.3333 110.509V160C84.3333 160.552 84.781 161 85.3333 161H98.6666C99.2189 161 99.6666 160.552 99.6666 160Z" fill="#D7DEE4"/>
</svg>
