<svg width="28" height="28" viewBox="0 0 28 28" fill="none" xmlns="http://www.w3.org/2000/svg">
<path fill-rule="evenodd" clip-rule="evenodd" d="M5.09774 0.431077C4.70722 0.040553 4.07405 0.0405521 3.68353 0.431076L0.431077 3.68353C0.0405523 4.07405 0.0405527 4.70722 0.431077 5.09774L0.902481 5.56915C1.29301 5.95967 1.92617 5.95967 2.31669 5.56915L5.56915 2.3167C5.95967 1.92617 5.95967 1.29301 5.56915 0.902481L5.09774 0.431077ZM22.4311 2.31669C22.0406 1.92617 22.0406 1.29301 22.4311 0.902482L22.9025 0.431078C23.293 0.0405533 23.9262 0.040553 24.3167 0.431077L27.5692 3.68353C27.9597 4.07406 27.9597 4.70722 27.5691 5.09774L27.0977 5.56915C26.7072 5.95967 26.0741 5.95967 25.6835 5.56915L22.4311 2.31669ZM14.0001 27.3334C6.63632 27.3334 0.666779 21.3639 0.666779 14.0001C0.666779 6.63632 6.63632 0.66678 14.0001 0.66678C21.3639 0.66678 27.3334 6.63632 27.3334 14.0001C27.3334 21.3639 21.3639 27.3334 14.0001 27.3334ZM14.0001 24.6668C19.8911 24.6668 24.6668 19.8911 24.6668 14.0001C24.6668 8.10907 19.8911 3.33345 14.0001 3.33345C8.10907 3.33345 3.33345 8.10907 3.33345 14.0001C3.33345 19.8911 8.10907 24.6668 14.0001 24.6668ZM19.6668 12.6668H15.3334V7.00011C15.3334 6.44783 14.8857 6.00011 14.3334 6.00011H13.6668C13.1145 6.00011 12.6668 6.44783 12.6668 7.00011V14.3334C12.6668 14.8857 13.1145 15.3334 13.6668 15.3334H19.6668C20.2191 15.3334 20.6668 14.8857 20.6668 14.3334V13.6668C20.6668 13.1145 20.2191 12.6668 19.6668 12.6668Z" fill="#091526" fill-opacity="0.85"/>
</svg>
